<?xml version="1.0" encoding="utf-8"?>
<!-- Generator: Adobe Illustrator 24.3.0, SVG Export Plug-In . SVG Version: 6.00 Build 0)  -->
<svg version="1.1" id="Layer_1" xmlns="http://www.w3.org/2000/svg" xmlns:xlink="http://www.w3.org/1999/xlink" x="0px" y="0px"
	 viewBox="0 0 701.74 167.23" style="enable-background:new 0 0 701.74 167.23;" xml:space="preserve">
<style type="text/css">
	.st0{fill:#86A93F;}
	.st1{fill:#00A551;}
	.st2{fill:#AACF37;}
	.st3{fill:#8A362F;}
	.st4{opacity:0.79;fill:#EFEFEF;}
	.st5{fill:#8A3730;}
</style>
<g>
	<g>
		<path class="st0" d="M120.34,71.39l5.97-20.54c0.7-2.45,2.08-4.44,4.14-5.97c2.06-1.53,4.38-2.29,6.97-2.29
			c3.35,0,6.16,1.21,8.43,3.62c2.27,2.41,3.4,5.38,3.4,8.91c0,2.15-0.46,4.22-1.36,6.21L131.44,97.2c-1.47,3.14-3.02,5.4-4.66,6.78
			c-1.64,1.38-3.68,2.07-6.13,2.07c-2.65,0-4.85-0.67-6.6-2.01c-1.75-1.34-3.39-3.62-4.92-6.84L92.78,61.33
			c-0.91-1.99-1.36-4.06-1.36-6.21c0-3.52,1.13-6.5,3.4-8.91c2.27-2.41,5.04-3.62,8.33-3.62c2.51,0,4.82,0.77,6.91,2.29
			c2.1,1.53,3.53,3.52,4.3,5.97L120.34,71.39z"/>
		<path class="st0" d="M148.2,74.61c0-9.1,3-16.75,9.01-22.95c6.01-6.2,13.37-9.29,22.1-9.29c8.66,0,15.99,3.1,22,9.29
			c6.01,6.2,9.01,13.81,9.01,22.84c0,9.1-2.97,16.75-8.9,22.95c-5.94,6.2-13.3,9.29-22.1,9.29c-8.73,0-16.1-3.1-22.1-9.29
			C151.2,91.25,148.2,83.63,148.2,74.61z M179.31,64.51c-2.3,0-4.24,0.98-5.81,2.93s-2.36,4.42-2.36,7.4c0,3.06,0.77,5.58,2.3,7.57
			c1.54,1.99,3.49,2.98,5.87,2.98c2.44,0,4.43-0.96,5.97-2.87c1.54-1.91,2.3-4.48,2.3-7.69c0-2.91-0.8-5.35-2.41-7.34
			C183.57,65.5,181.62,64.51,179.31,64.51z"/>
		<path class="st0" d="M251.6,82.41l4.71-0.57c2.93,0,5.38,1,7.33,2.98c1.95,1.99,2.93,4.51,2.93,7.57c0,9.33-7.19,14-21.58,14
			c-9.29,0-16.76-2.75-22.42-8.26c-3.21-2.91-5.73-6.44-7.54-10.62c-1.82-4.17-2.72-8.47-2.72-12.91c0-8.87,3.04-16.33,9.11-22.38
			c6.08-6.04,13.58-9.07,22.52-9.07c6.98,0,12.47,1.22,16.45,3.67c3.98,2.45,5.97,5.81,5.97,10.1c0,3.37-0.91,6.08-2.72,8.15
			c-1.82,2.07-4.23,3.1-7.23,3.1c-0.77,0-1.43-0.04-1.99-0.11c-0.56-0.08-1.75-0.38-3.56-0.92c-2.58-0.84-4.92-1.26-7.02-1.26
			c-2.38,0-4.37,0.8-5.97,2.41c-1.61,1.61-2.41,3.67-2.41,6.2c0,2.75,0.84,4.97,2.51,6.66c1.68,1.68,3.91,2.52,6.7,2.52
			c0.28,0,0.65-0.02,1.1-0.06c0.45-0.04,1.06-0.17,1.83-0.4L251.6,82.41z"/>
		<path class="st0" d="M308.27,47.64c4.12-3.52,7.33-5.28,9.64-5.28c3.21,0,5.94,1.19,8.17,3.56c2.23,2.37,3.35,5.39,3.35,9.07
			v38.56c0,3.52-1.12,6.54-3.35,9.07c-2.24,2.52-4.99,3.79-8.28,3.79c-2.24,0-5.41-1.8-9.53-5.39c-2.3,2.22-4.31,3.67-6.02,4.36
			c-1.71,0.69-4.21,1.03-7.49,1.03c-7.54,0-13.93-3.02-19.17-9.07c-5.24-6.04-7.86-13.43-7.86-22.15c0-9.1,2.67-16.85,8.01-23.24
			c5.34-6.39,11.82-9.58,19.43-9.58c3.07,0,5.39,0.31,6.97,0.92C303.71,43.89,305.76,45.34,308.27,47.64z M298.84,64.85
			c-2.3,0-4.19,0.96-5.66,2.87c-1.47,1.91-2.2,4.44-2.2,7.57c0,2.75,0.77,5.05,2.3,6.88c1.54,1.84,3.39,2.75,5.55,2.75
			c2.23,0,4.12-0.96,5.66-2.87c1.54-1.91,2.3-4.28,2.3-7.11c0-2.91-0.73-5.32-2.2-7.23C303.14,65.81,301.22,64.85,298.84,64.85z"/>
		<path class="st0" d="M371.02,45.57V27.9c0-3.44,1.12-6.39,3.35-8.84c2.23-2.45,4.96-3.67,8.17-3.67c3.21,0,5.97,1.23,8.28,3.68
			c2.3,2.45,3.46,5.45,3.46,8.97v65.69c0,3.53-1.12,6.52-3.35,8.97c-2.24,2.45-5.03,3.68-8.38,3.68c-2.38,0-5.52-1.99-9.43-5.97
			c-2.65,2.45-4.8,4.06-6.44,4.82c-1.64,0.76-3.96,1.15-6.97,1.15c-7.61,0-14.07-3.14-19.38-9.41c-5.31-6.27-7.96-13.85-7.96-22.72
			c0-8.72,2.65-16.18,7.96-22.38c5.31-6.2,11.7-9.29,19.17-9.29c1.95,0,3.67,0.19,5.13,0.57C366.1,43.55,368.23,44.35,371.02,45.57z
			 M363.58,64.28c-2.38,0-4.29,0.96-5.76,2.87c-1.47,1.91-2.2,4.4-2.2,7.46c0,2.83,0.77,5.2,2.3,7.11c1.54,1.91,3.42,2.87,5.66,2.87
			c2.3,0,4.23-0.99,5.76-2.98c1.54-1.99,2.3-4.44,2.3-7.34c0-2.83-0.77-5.2-2.3-7.11C367.81,65.24,365.89,64.28,363.58,64.28z"/>
		<path class="st0" d="M397.1,74.61c0-9.1,3-16.75,9.01-22.95c6-6.2,13.37-9.29,22.1-9.29c8.66,0,15.99,3.1,22,9.29
			c6,6.2,9.01,13.81,9.01,22.84c0,9.1-2.97,16.75-8.9,22.95c-5.94,6.2-13.3,9.29-22.1,9.29c-8.73,0-16.1-3.1-22.1-9.29
			C400.11,91.25,397.1,83.63,397.1,74.61z M428.22,64.51c-2.3,0-4.24,0.98-5.81,2.93c-1.57,1.95-2.36,4.42-2.36,7.4
			c0,3.06,0.77,5.58,2.3,7.57c1.54,1.99,3.49,2.98,5.87,2.98c2.44,0,4.43-0.96,5.97-2.87c1.54-1.91,2.3-4.48,2.3-7.69
			c0-2.91-0.8-5.35-2.41-7.34C432.48,65.5,430.52,64.51,428.22,64.51z"/>
		<path class="st0" d="M503.33,81.03l-6.18,16.41c-2.03,5.51-5.66,8.26-10.9,8.26c-4.82,0-8.45-2.8-10.89-8.41l-16.24-35.93
			c-0.84-1.84-1.26-3.95-1.26-6.33c0-3.76,1.08-6.83,3.25-9.21c2.16-2.38,4.96-3.57,8.38-3.57c2.44,0,4.68,0.73,6.7,2.18
			c2.03,1.45,3.42,3.4,4.19,5.85l5.97,18.82l5.03-15.72c2.51-7.42,6.35-11.13,11.52-11.13c3.14,0,5.62,0.8,7.44,2.41
			c1.82,1.61,3.42,4.51,4.82,8.72l5.03,15.72l6.08-18.82c0.77-2.45,2.13-4.4,4.08-5.85c1.96-1.45,4.19-2.18,6.71-2.18
			c3.42,0,6.21,1.19,8.38,3.57c2.16,2.38,3.25,5.41,3.25,9.1c0,2.46-0.42,4.61-1.26,6.45L531.4,97.3c-2.72,5.61-6.39,8.41-11,8.41
			c-5.31,0-8.97-2.75-11-8.26L503.33,81.03z"/>
		<path class="st0" d="M587.76,47.64c4.12-3.52,7.33-5.28,9.64-5.28c3.21,0,5.94,1.19,8.17,3.56c2.23,2.37,3.35,5.39,3.35,9.07
			v38.56c0,3.52-1.12,6.54-3.35,9.07c-2.24,2.52-4.99,3.79-8.28,3.79c-2.24,0-5.41-1.8-9.53-5.39c-2.3,2.22-4.31,3.67-6.02,4.36
			c-1.71,0.69-4.21,1.03-7.49,1.03c-7.54,0-13.93-3.02-19.17-9.07c-5.24-6.04-7.86-13.43-7.86-22.15c0-9.1,2.67-16.85,8.01-23.24
			c5.34-6.39,11.82-9.58,19.43-9.58c3.07,0,5.39,0.31,6.97,0.92C583.2,43.89,585.25,45.34,587.76,47.64z M578.33,64.85
			c-2.3,0-4.19,0.96-5.66,2.87c-1.47,1.91-2.2,4.44-2.2,7.57c0,2.75,0.77,5.05,2.3,6.88c1.54,1.84,3.39,2.75,5.55,2.75
			c2.23,0,4.12-0.96,5.66-2.87c1.54-1.91,2.3-4.28,2.3-7.11c0-2.91-0.73-5.32-2.2-7.23C582.63,65.81,580.71,64.85,578.33,64.85z"/>
		<path class="st0" d="M636.27,93.66c0,3.52-1.14,6.56-3.41,9.12c-2.27,2.56-5.01,3.84-8.22,3.84c-3.21,0-5.97-1.26-8.28-3.79
			c-2.3-2.53-3.46-5.58-3.46-9.18V27.9c0-3.44,1.15-6.39,3.46-8.84c2.3-2.45,5.1-3.67,8.38-3.67c3.14,0,5.85,1.24,8.12,3.73
			c2.27,2.49,3.41,5.49,3.41,9.01V93.66z"/>
		<path class="st0" d="M679.64,47.64c4.12-3.52,7.33-5.28,9.64-5.28c3.21,0,5.94,1.19,8.17,3.56c2.23,2.37,3.35,5.39,3.35,9.07
			v38.56c0,3.52-1.12,6.54-3.35,9.07c-2.24,2.52-4.99,3.79-8.28,3.79c-2.24,0-5.41-1.8-9.53-5.39c-2.3,2.22-4.31,3.67-6.02,4.36
			c-1.71,0.69-4.21,1.03-7.49,1.03c-7.54,0-13.93-3.02-19.17-9.07c-5.24-6.04-7.86-13.43-7.86-22.15c0-9.1,2.67-16.85,8.01-23.24
			c5.34-6.39,11.82-9.58,19.43-9.58c3.07,0,5.39,0.31,6.97,0.92C675.08,43.89,677.12,45.34,679.64,47.64z M670.21,64.85
			c-2.3,0-4.19,0.96-5.66,2.87c-1.47,1.91-2.2,4.44-2.2,7.57c0,2.75,0.77,5.05,2.3,6.88c1.54,1.84,3.39,2.75,5.55,2.75
			c2.23,0,4.12-0.96,5.66-2.87c1.54-1.91,2.3-4.28,2.3-7.11c0-2.91-0.73-5.32-2.2-7.23C674.5,65.81,672.58,64.85,670.21,64.85z"/>
	</g>
	<g>
		<path class="st0" d="M42.78,112.37c-0.98,0-1.97-0.03-2.95-0.1c-20.6-1.41-37.24-17.98-38.72-38.54
			c-0.62-8.6,1.37-17.01,5.74-24.35c2.81-4.72,4.3-9.91,4.3-15.01V32.1C11.15,14.95,25.12,1,42.3,1s31.15,13.95,31.15,31.1v0.45
			c0,5.49,1.66,11.04,4.8,16.06c4.12,6.6,6.31,14.23,6.31,22.04c0,11.14-4.35,21.61-12.23,29.49
			C64.43,108.03,53.93,112.37,42.78,112.37z"/>
		<path class="st1" d="M42.3,2c16.63,0,30.15,13.5,30.15,30.1v0.45c0,5.67,1.71,11.41,4.95,16.59c4.03,6.44,6.15,13.88,6.15,21.51
			c0,22.45-18.29,40.71-40.78,40.71c-0.95,0-1.92-0.03-2.88-0.1c-20.1-1.38-36.35-17.55-37.79-37.61c-0.6-8.39,1.33-16.61,5.6-23.76
			c2.9-4.87,4.44-10.24,4.44-15.53V32.1C12.15,15.5,25.67,2,42.3,2 M42.3,0L42.3,0C24.54,0,10.15,14.37,10.15,32.1v2.26
			c0,5.13-1.53,10.1-4.16,14.5c-4.3,7.21-6.53,15.79-5.87,24.93c1.51,21.02,18.59,38.02,39.65,39.46c1.01,0.07,2.02,0.1,3.02,0.1
			c23.63,0,42.78-19.12,42.78-42.71c0-8.29-2.36-16.02-6.46-22.57c-2.93-4.68-4.64-10.01-4.64-15.53V32.1
			C74.45,14.37,60.05,0,42.3,0L42.3,0z"/>
	</g>
	<g>
		<path class="st2" d="M44.06,104.54c18.14-0.91,33-14.35,33.03-36.1c0.01-10.22-5.03-15.17-8.02-20.96
			c-2.14-4.14-2.46-7.02-2.46-11.9v-3.36c0-15.67-11.99-24.32-24.96-24.32"/>
	</g>
	<ellipse class="st3" cx="179.26" cy="75.21" rx="11.78" ry="13.78"/>
	<ellipse class="st3" cx="42.78" cy="71.06" rx="17.33" ry="21.05"/>
	<ellipse class="st3" cx="298.81" cy="75.21" rx="11.78" ry="13.78"/>
	<ellipse class="st3" cx="364.59" cy="75.21" rx="11.78" ry="13.78"/>
	<ellipse class="st3" cx="428.59" cy="75.21" rx="11.78" ry="13.78"/>
	<ellipse class="st3" cx="577.92" cy="75.21" rx="11.78" ry="13.78"/>
	<ellipse class="st3" cx="671.7" cy="75.21" rx="11.78" ry="13.78"/>
	<path class="st4" d="M48.12,60.76c1.5,2.22,2.49,6.06,2.49,10.43c0,4.07-0.86,7.68-2.19,9.95c3.47-0.65,6.16-4.95,6.16-10.17
		C54.58,65.62,51.74,61.22,48.12,60.76z"/>
	<path class="st4" d="M180.78,65.02c1.5,2.22,2.49,6.06,2.49,10.43c0,4.07-0.86,7.68-2.19,9.95c3.47-0.65,6.16-4.95,6.16-10.17
		C187.24,69.87,184.4,65.48,180.78,65.02z"/>
	<path class="st4" d="M301.42,65.02c1.5,2.22,2.49,6.06,2.49,10.43c0,4.07-0.86,7.68-2.19,9.95c3.47-0.65,6.16-4.95,6.16-10.17
		C307.87,69.87,305.03,65.48,301.42,65.02z"/>
	<path class="st4" d="M365.28,65.02c1.5,2.22,2.49,6.06,2.49,10.43c0,4.07-0.86,7.68-2.19,9.95c3.47-0.65,6.16-4.95,6.16-10.17
		C371.73,69.87,368.89,65.48,365.28,65.02z"/>
	<path class="st4" d="M429.13,65.02c1.5,2.22,2.49,6.06,2.49,10.43c0,4.07-0.86,7.68-2.19,9.95c3.47-0.65,6.16-4.95,6.16-10.17
		C435.59,69.87,432.75,65.48,429.13,65.02z"/>
	<path class="st4" d="M579.76,65.02c1.5,2.22,2.49,6.06,2.49,10.43c0,4.07-0.86,7.68-2.19,9.95c3.47-0.65,6.16-4.95,6.16-10.17
		C586.21,69.87,583.37,65.48,579.76,65.02z"/>
	<path class="st4" d="M671.7,65.02c1.5,2.22,2.49,6.06,2.49,10.43c0,4.07-0.86,7.68-2.19,9.95c3.47-0.65,6.16-4.95,6.16-10.17
		C678.15,69.87,675.32,65.48,671.7,65.02z"/>
	<g>
		<path class="st5" d="M170.15,148.32v-9.2c-1.19-2.21-2.37-4.42-3.53-6.62c-1.16-2.2-2.34-4.41-3.53-6.62h5.58
			c0.4,0.88,0.79,1.78,1.17,2.7c0.38,0.92,0.77,1.82,1.17,2.7c0.2,0.45,0.38,0.89,0.55,1.32s0.33,0.84,0.47,1.23l0.38,0.98
			c0.14,0.34,0.28,0.67,0.43,0.98c0.23-0.57,0.47-1.16,0.72-1.79s0.5-1.24,0.72-1.83l0.38-0.89c0.4-0.88,0.77-1.78,1.13-2.7
			c0.35-0.92,0.73-1.82,1.13-2.7h5.53l-7.37,13.07v9.37H170.15z"/>
		<path class="st5" d="M191.48,131.72c1.25,0,2.38,0.21,3.41,0.62c1.02,0.41,1.89,0.98,2.62,1.7c0.72,0.72,1.28,1.6,1.68,2.62
			c0.4,1.02,0.6,2.14,0.6,3.36c0,1.5-0.24,2.79-0.72,3.87c-0.48,1.08-1.13,1.98-1.94,2.7c-0.81,0.72-1.72,1.26-2.75,1.6
			s-2.09,0.51-3.19,0.51c-1.19,0-2.3-0.19-3.32-0.58c-1.02-0.38-1.91-0.93-2.66-1.64c-0.75-0.71-1.34-1.58-1.77-2.62
			s-0.64-2.22-0.64-3.55c0-1.31,0.21-2.49,0.62-3.55c0.41-1.06,1-1.97,1.77-2.7c0.77-0.74,1.68-1.31,2.75-1.72
			C188.99,131.93,190.18,131.72,191.48,131.72z M191.35,135.17c-0.62,0-1.16,0.15-1.6,0.45c-0.44,0.3-0.79,0.68-1.06,1.15
			c-0.27,0.47-0.47,1-0.6,1.6c-0.13,0.6-0.19,1.21-0.19,1.83c0,1.45,0.29,2.65,0.87,3.6c0.58,0.95,1.44,1.43,2.58,1.43
			c0.99,0,1.79-0.46,2.41-1.38c0.61-0.92,0.92-2.13,0.92-3.64c0-0.62-0.06-1.24-0.19-1.85s-0.33-1.15-0.6-1.62
			c-0.27-0.47-0.61-0.84-1.02-1.13C192.45,135.31,191.95,135.17,191.35,135.17z"/>
		<path class="st5" d="M217.49,143.13c0,0.79,0.01,1.57,0.02,2.32c0.01,0.75,0.04,1.41,0.06,1.98c0,0.17,0.01,0.33,0.02,0.47
			c0.01,0.14,0.02,0.28,0.02,0.43h-4.26l-0.21-2.47c-0.2,0.26-0.45,0.55-0.74,0.87c-0.3,0.33-0.67,0.64-1.11,0.94
			c-0.44,0.3-0.95,0.55-1.53,0.75c-0.58,0.2-1.23,0.3-1.94,0.3c-0.82,0-1.58-0.13-2.28-0.4c-0.7-0.27-1.3-0.69-1.81-1.26
			c-0.51-0.57-0.91-1.3-1.19-2.19c-0.28-0.89-0.43-1.97-0.43-3.21v-9.54h4.98v8.73c0,1.22,0.21,2.18,0.64,2.87
			c0.43,0.7,1.09,1.04,2,1.04c0.74,0,1.32-0.21,1.75-0.62c0.43-0.41,0.72-0.82,0.89-1.21c0.06-0.14,0.1-0.31,0.13-0.51
			c0.03-0.2,0.04-0.41,0.04-0.64v-9.66h4.94V143.13z"/>
		<path class="st5" d="M219.96,137.43c0-0.82-0.01-1.62-0.02-2.38c-0.01-0.77-0.04-1.43-0.06-2c0-0.2-0.01-0.36-0.02-0.49
			c-0.01-0.13-0.02-0.28-0.02-0.45h4.21l0.17,2.98l0.17,0.04c0.48-1.19,1.16-2.06,2.02-2.6c0.87-0.54,1.68-0.81,2.45-0.81h0.55
			c0.14,0,0.28,0.03,0.43,0.08v4.64c-0.17-0.06-0.36-0.1-0.55-0.13c-0.2-0.03-0.44-0.04-0.72-0.04c-0.97,0-1.76,0.24-2.38,0.72
			c-0.62,0.48-1.02,1.14-1.19,1.96c-0.03,0.17-0.05,0.35-0.06,0.53c-0.01,0.18-0.02,0.39-0.02,0.62v8.22h-4.94V137.43z"/>
		<path class="st5" d="M241.8,142.53c-0.23,0.88-0.5,1.84-0.81,2.89c-0.31,1.05-0.58,2.02-0.81,2.9h-5.11
			c1.13-3.72,2.28-7.46,3.45-11.24c1.16-3.77,2.31-7.51,3.45-11.2h6.51c1.19,3.78,2.36,7.51,3.49,11.22
			c1.14,3.7,2.3,7.44,3.49,11.22h-5.28l-1.75-5.79H241.8z M247.72,138.87c-0.23-0.77-0.47-1.59-0.72-2.47s-0.5-1.7-0.72-2.47
			c-0.2-0.65-0.41-1.42-0.64-2.3c-0.23-0.88-0.41-1.65-0.55-2.3c-0.28,0.74-0.51,1.56-0.68,2.47c-0.09,0.4-0.17,0.77-0.26,1.13
			c-0.09,0.36-0.17,0.69-0.26,1l-1.4,4.94H247.72z"/>
		<path class="st5" d="M260.75,132.1l2.21,7.58c0.23,0.68,0.41,1.35,0.55,2c0.14,0.65,0.27,1.31,0.38,1.96l0.17,0.04
			c0.2-0.65,0.37-1.31,0.51-1.96c0.14-0.65,0.31-1.33,0.51-2.04c0.34-1.25,0.69-2.51,1.04-3.79c0.35-1.28,0.7-2.54,1.04-3.79h5.19
			c-0.99,2.7-2.01,5.4-3.04,8.11s-2.05,5.41-3.04,8.11h-4.94c-0.99-2.73-1.98-5.43-2.96-8.11c-0.98-2.68-1.97-5.39-2.96-8.11H260.75
			z"/>
		<path class="st5" d="M281.39,131.72c1.25,0,2.38,0.21,3.41,0.62c1.02,0.41,1.89,0.98,2.62,1.7c0.72,0.72,1.28,1.6,1.68,2.62
			c0.4,1.02,0.6,2.14,0.6,3.36c0,1.5-0.24,2.79-0.72,3.87c-0.48,1.08-1.13,1.98-1.94,2.7c-0.81,0.72-1.72,1.26-2.75,1.6
			s-2.09,0.51-3.19,0.51c-1.19,0-2.3-0.19-3.32-0.58c-1.02-0.38-1.91-0.93-2.66-1.64c-0.75-0.71-1.34-1.58-1.77-2.62
			s-0.64-2.22-0.64-3.55c0-1.31,0.21-2.49,0.62-3.55c0.41-1.06,1-1.97,1.77-2.7c0.77-0.74,1.68-1.31,2.75-1.72
			C278.9,131.93,280.09,131.72,281.39,131.72z M281.27,135.17c-0.62,0-1.16,0.15-1.6,0.45c-0.44,0.3-0.79,0.68-1.06,1.15
			c-0.27,0.47-0.47,1-0.6,1.6c-0.13,0.6-0.19,1.21-0.19,1.83c0,1.45,0.29,2.65,0.87,3.6c0.58,0.95,1.44,1.43,2.58,1.43
			c0.99,0,1.79-0.46,2.41-1.38c0.61-0.92,0.92-2.13,0.92-3.64c0-0.62-0.06-1.24-0.19-1.85s-0.33-1.15-0.6-1.62
			c-0.27-0.47-0.61-0.84-1.02-1.13C282.37,135.31,281.86,135.17,281.27,135.17z"/>
		<path class="st5" d="M304.26,147.98c-0.45,0.2-1.08,0.37-1.87,0.51c-0.79,0.14-1.66,0.21-2.6,0.21c-2.64,0-4.73-0.75-6.28-2.24
			c-1.55-1.49-2.32-3.53-2.32-6.11c0-1.19,0.2-2.31,0.6-3.36c0.4-1.05,0.99-1.96,1.79-2.75c0.79-0.78,1.77-1.4,2.92-1.85
			c1.15-0.45,2.49-0.68,4.02-0.68c0.65,0,1.31,0.06,1.98,0.17c0.67,0.11,1.27,0.27,1.81,0.47c-0.14,0.6-0.28,1.19-0.4,1.77
			c-0.13,0.58-0.26,1.17-0.4,1.77c-0.31-0.14-0.69-0.25-1.13-0.32c-0.44-0.07-0.99-0.11-1.64-0.11c-1.36,0-2.46,0.44-3.28,1.32
			c-0.82,0.88-1.22,2-1.19,3.36c0,1.53,0.45,2.7,1.34,3.49c0.89,0.79,1.98,1.19,3.26,1.19c0.6,0,1.11-0.04,1.55-0.13
			c0.44-0.08,0.86-0.21,1.26-0.38L304.26,147.98z"/>
		<path class="st5" d="M319.71,144.41c0,0.77,0.01,1.5,0.02,2.19c0.01,0.7,0.06,1.27,0.15,1.72h-4.39l-0.34-1.75
			c-1.28,1.42-2.9,2.13-4.85,2.13c-0.82,0-1.55-0.13-2.19-0.4s-1.19-0.64-1.64-1.11c-0.45-0.47-0.79-1-1.02-1.6
			c-0.23-0.6-0.34-1.22-0.34-1.87c0-2.1,0.88-3.66,2.64-4.68c1.76-1.02,4.09-1.52,6.98-1.49v-0.3c0-0.23-0.04-0.48-0.11-0.75
			c-0.07-0.27-0.22-0.51-0.45-0.72c-0.23-0.21-0.54-0.39-0.94-0.53c-0.4-0.14-0.92-0.21-1.58-0.21c-0.85,0-1.67,0.11-2.47,0.32
			c-0.79,0.21-1.48,0.49-2.04,0.83c-0.14-0.54-0.29-1.05-0.45-1.53c-0.16-0.48-0.31-0.99-0.45-1.53c0.6-0.31,1.43-0.62,2.51-0.94
			c1.08-0.31,2.34-0.47,3.79-0.47c1.36,0,2.5,0.18,3.41,0.55c0.91,0.37,1.64,0.87,2.19,1.51c0.55,0.64,0.95,1.38,1.19,2.24
			c0.24,0.85,0.36,1.75,0.36,2.68V144.41z M314.9,140.58c-1.39-0.03-2.56,0.16-3.51,0.55c-0.95,0.4-1.43,1.11-1.43,2.13
			c0,0.65,0.21,1.15,0.62,1.49c0.41,0.34,0.9,0.51,1.47,0.51c0.65,0,1.23-0.18,1.75-0.53c0.51-0.35,0.85-0.8,1.02-1.34
			c0.03-0.14,0.05-0.28,0.06-0.43c0.01-0.14,0.02-0.31,0.02-0.51V140.58z"/>
		<path class="st5" d="M337.33,124.7v18.82c0,0.91,0.01,1.8,0.02,2.66c0.01,0.87,0.05,1.58,0.11,2.15h-4.39l-0.21-2.64
			c-0.6,0.99-1.37,1.75-2.32,2.26c-0.95,0.51-1.94,0.77-2.96,0.77c-0.97,0-1.87-0.2-2.73-0.6c-0.85-0.4-1.59-0.96-2.21-1.68
			c-0.62-0.72-1.11-1.6-1.47-2.62c-0.35-1.02-0.53-2.17-0.53-3.45c0-1.36,0.19-2.58,0.57-3.66c0.38-1.08,0.91-1.99,1.58-2.72
			c0.67-0.74,1.44-1.3,2.32-1.68c0.88-0.38,1.82-0.57,2.81-0.57c0.99,0,1.87,0.18,2.64,0.55c0.77,0.37,1.35,0.87,1.75,1.49
			c0-1.48,0.01-2.99,0.04-4.53c0.03-1.55,0.04-3.06,0.04-4.53H337.33z M332.4,138.96c0-0.14-0.01-0.29-0.02-0.45
			c-0.02-0.16-0.04-0.3-0.06-0.45c-0.14-0.74-0.48-1.36-1.02-1.87s-1.22-0.77-2.04-0.77c-1.19,0-2.09,0.46-2.7,1.38
			c-0.61,0.92-0.92,2.05-0.92,3.38c0,1.42,0.33,2.54,0.98,3.36c0.65,0.82,1.52,1.23,2.6,1.23c0.77,0,1.43-0.23,2-0.7
			c0.57-0.47,0.92-1.07,1.06-1.81c0.09-0.37,0.13-0.77,0.13-1.19V138.96z"/>
		<path class="st5" d="M347.38,131.72c1.25,0,2.38,0.21,3.41,0.62c1.02,0.41,1.89,0.98,2.62,1.7c0.72,0.72,1.28,1.6,1.68,2.62
			c0.4,1.02,0.6,2.14,0.6,3.36c0,1.5-0.24,2.79-0.72,3.87c-0.48,1.08-1.13,1.98-1.94,2.7c-0.81,0.72-1.72,1.26-2.75,1.6
			c-1.02,0.34-2.09,0.51-3.19,0.51c-1.19,0-2.3-0.19-3.32-0.58c-1.02-0.38-1.91-0.93-2.66-1.64c-0.75-0.71-1.34-1.58-1.77-2.62
			s-0.64-2.22-0.64-3.55c0-1.31,0.21-2.49,0.62-3.55c0.41-1.06,1-1.97,1.77-2.7c0.77-0.74,1.68-1.31,2.75-1.72
			S346.08,131.72,347.38,131.72z M347.25,135.17c-0.62,0-1.16,0.15-1.6,0.45c-0.44,0.3-0.79,0.68-1.06,1.15
			c-0.27,0.47-0.47,1-0.6,1.6c-0.13,0.6-0.19,1.21-0.19,1.83c0,1.45,0.29,2.65,0.87,3.6c0.58,0.95,1.44,1.43,2.58,1.43
			c0.99,0,1.79-0.46,2.41-1.38c0.61-0.92,0.92-2.13,0.92-3.64c0-0.62-0.06-1.24-0.19-1.85c-0.13-0.61-0.33-1.15-0.6-1.62
			c-0.27-0.47-0.61-0.84-1.02-1.13C348.35,135.31,347.85,135.17,347.25,135.17z"/>
		<path class="st5" d="M364.24,125.89h13.67v4h-8.68v5.36h8.09v3.96h-8.09v9.11h-4.98V125.89z"/>
		<path class="st5" d="M387.32,131.72c1.25,0,2.38,0.21,3.41,0.62c1.02,0.41,1.89,0.98,2.62,1.7c0.72,0.72,1.28,1.6,1.68,2.62
			c0.4,1.02,0.6,2.14,0.6,3.36c0,1.5-0.24,2.79-0.72,3.87c-0.48,1.08-1.13,1.98-1.94,2.7c-0.81,0.72-1.72,1.26-2.75,1.6
			c-1.02,0.34-2.09,0.51-3.19,0.51c-1.19,0-2.3-0.19-3.32-0.58c-1.02-0.38-1.91-0.93-2.66-1.64c-0.75-0.71-1.34-1.58-1.77-2.62
			s-0.64-2.22-0.64-3.55c0-1.31,0.21-2.49,0.62-3.55c0.41-1.06,1-1.97,1.77-2.7c0.77-0.74,1.68-1.31,2.75-1.72
			S386.01,131.72,387.32,131.72z M387.19,135.17c-0.62,0-1.16,0.15-1.6,0.45c-0.44,0.3-0.79,0.68-1.06,1.15
			c-0.27,0.47-0.47,1-0.6,1.6c-0.13,0.6-0.19,1.21-0.19,1.83c0,1.45,0.29,2.65,0.87,3.6c0.58,0.95,1.44,1.43,2.58,1.43
			c0.99,0,1.79-0.46,2.41-1.38c0.61-0.92,0.92-2.13,0.92-3.64c0-0.62-0.06-1.24-0.19-1.85c-0.13-0.61-0.33-1.15-0.6-1.62
			c-0.27-0.47-0.61-0.84-1.02-1.13C388.29,135.31,387.78,135.17,387.19,135.17z"/>
		<path class="st5" d="M405.79,131.72c1.25,0,2.38,0.21,3.41,0.62c1.02,0.41,1.89,0.98,2.62,1.7c0.72,0.72,1.28,1.6,1.68,2.62
			c0.4,1.02,0.6,2.14,0.6,3.36c0,1.5-0.24,2.79-0.72,3.87c-0.48,1.08-1.13,1.98-1.94,2.7c-0.81,0.72-1.72,1.26-2.75,1.6
			c-1.02,0.34-2.09,0.51-3.19,0.51c-1.19,0-2.3-0.19-3.32-0.58c-1.02-0.38-1.91-0.93-2.66-1.64c-0.75-0.71-1.34-1.58-1.77-2.62
			s-0.64-2.22-0.64-3.55c0-1.31,0.21-2.49,0.62-3.55c0.41-1.06,1-1.97,1.77-2.7c0.77-0.74,1.68-1.31,2.75-1.72
			S404.49,131.72,405.79,131.72z M405.66,135.17c-0.62,0-1.16,0.15-1.6,0.45c-0.44,0.3-0.79,0.68-1.06,1.15
			c-0.27,0.47-0.47,1-0.6,1.6c-0.13,0.6-0.19,1.21-0.19,1.83c0,1.45,0.29,2.65,0.87,3.6c0.58,0.95,1.44,1.43,2.58,1.43
			c0.99,0,1.79-0.46,2.41-1.38c0.61-0.92,0.92-2.13,0.92-3.64c0-0.62-0.06-1.24-0.19-1.85c-0.13-0.61-0.33-1.15-0.6-1.62
			c-0.27-0.47-0.61-0.84-1.02-1.13C406.76,135.31,406.26,135.17,405.66,135.17z"/>
		<path class="st5" d="M432.27,124.7v18.82c0,0.91,0.01,1.8,0.02,2.66c0.01,0.87,0.05,1.58,0.11,2.15h-4.39l-0.21-2.64
			c-0.6,0.99-1.37,1.75-2.32,2.26c-0.95,0.51-1.94,0.77-2.96,0.77c-0.97,0-1.87-0.2-2.72-0.6c-0.85-0.4-1.59-0.96-2.21-1.68
			c-0.62-0.72-1.11-1.6-1.47-2.62c-0.36-1.02-0.53-2.17-0.53-3.45c0-1.36,0.19-2.58,0.57-3.66c0.38-1.08,0.91-1.99,1.58-2.72
			c0.67-0.74,1.44-1.3,2.32-1.68s1.82-0.57,2.81-0.57s1.87,0.18,2.64,0.55c0.77,0.37,1.35,0.87,1.75,1.49
			c0-1.48,0.01-2.99,0.04-4.53c0.03-1.55,0.04-3.06,0.04-4.53H432.27z M427.33,138.96c0-0.14-0.01-0.29-0.02-0.45
			c-0.01-0.16-0.04-0.3-0.06-0.45c-0.14-0.74-0.48-1.36-1.02-1.87s-1.22-0.77-2.04-0.77c-1.19,0-2.09,0.46-2.7,1.38
			c-0.61,0.92-0.92,2.05-0.92,3.38c0,1.42,0.33,2.54,0.98,3.36c0.65,0.82,1.52,1.23,2.6,1.23c0.77,0,1.43-0.23,2-0.7
			c0.57-0.47,0.92-1.07,1.06-1.81c0.08-0.37,0.13-0.77,0.13-1.19V138.96z"/>
		<path class="st5" d="M445.68,125.89v8.68h8.56v-8.68h4.94v22.44h-4.94v-9.45h-8.56v9.45h-4.98v-22.44H445.68z"/>
		<path class="st5" d="M465.52,141.77c0.08,1.11,0.59,1.93,1.51,2.47c0.92,0.54,1.99,0.81,3.21,0.81c0.85,0,1.64-0.06,2.36-0.17
			c0.72-0.11,1.41-0.27,2.06-0.47c0.11,0.57,0.23,1.11,0.34,1.62c0.11,0.51,0.23,1.05,0.34,1.62c-0.82,0.31-1.75,0.57-2.77,0.77
			s-2.04,0.3-3.07,0.3c-2.78,0-4.92-0.75-6.43-2.24c-1.5-1.49-2.26-3.51-2.26-6.07c0-1.02,0.16-2.05,0.49-3.09
			c0.33-1.04,0.82-1.97,1.49-2.81c0.67-0.84,1.52-1.51,2.55-2.02c1.04-0.51,2.26-0.77,3.68-0.77c1.3,0,2.41,0.23,3.32,0.7
			c0.91,0.47,1.65,1.08,2.24,1.85c0.58,0.77,1,1.63,1.26,2.6c0.25,0.97,0.38,1.95,0.38,2.94c0,0.43-0.01,0.81-0.02,1.15
			c-0.01,0.34-0.05,0.61-0.11,0.81H465.52z M471.69,138.45c0-0.34-0.04-0.72-0.13-1.13c-0.09-0.41-0.23-0.79-0.45-1.13
			s-0.51-0.63-0.89-0.87c-0.38-0.24-0.87-0.36-1.47-0.36c-0.57,0-1.04,0.11-1.43,0.34c-0.38,0.23-0.71,0.51-0.98,0.85
			c-0.27,0.34-0.48,0.72-0.62,1.13c-0.14,0.41-0.23,0.8-0.25,1.17H471.69z"/>
		<path class="st5" d="M491.75,144.41c0,0.77,0.01,1.5,0.02,2.19c0.01,0.7,0.06,1.27,0.15,1.72h-4.38l-0.34-1.75
			c-1.28,1.42-2.89,2.13-4.85,2.13c-0.82,0-1.55-0.13-2.19-0.4s-1.19-0.64-1.64-1.11c-0.45-0.47-0.79-1-1.02-1.6
			c-0.23-0.6-0.34-1.22-0.34-1.87c0-2.1,0.88-3.66,2.64-4.68c1.76-1.02,4.09-1.52,6.98-1.49v-0.3c0-0.23-0.04-0.48-0.11-0.75
			s-0.22-0.51-0.45-0.72c-0.23-0.21-0.54-0.39-0.94-0.53c-0.4-0.14-0.92-0.21-1.58-0.21c-0.85,0-1.68,0.11-2.47,0.32
			c-0.79,0.21-1.48,0.49-2.04,0.83c-0.14-0.54-0.29-1.05-0.45-1.53c-0.16-0.48-0.31-0.99-0.45-1.53c0.6-0.31,1.43-0.62,2.51-0.94
			c1.08-0.31,2.34-0.47,3.79-0.47c1.36,0,2.5,0.18,3.41,0.55c0.91,0.37,1.64,0.87,2.19,1.51c0.55,0.64,0.95,1.38,1.19,2.24
			c0.24,0.85,0.36,1.75,0.36,2.68V144.41z M486.94,140.58c-1.39-0.03-2.56,0.16-3.51,0.55s-1.43,1.11-1.43,2.13
			c0,0.65,0.21,1.15,0.62,1.49c0.41,0.34,0.9,0.51,1.47,0.51c0.65,0,1.23-0.18,1.75-0.53c0.51-0.35,0.85-0.8,1.02-1.34
			c0.03-0.14,0.05-0.28,0.06-0.43c0.01-0.14,0.02-0.31,0.02-0.51V140.58z"/>
		<path class="st5" d="M497.24,132.1l2.21,7.58c0.23,0.68,0.41,1.35,0.55,2c0.14,0.65,0.27,1.31,0.38,1.96l0.17,0.04
			c0.2-0.65,0.37-1.31,0.51-1.96c0.14-0.65,0.31-1.33,0.51-2.04c0.34-1.25,0.69-2.51,1.04-3.79c0.35-1.28,0.7-2.54,1.04-3.79h5.19
			c-0.99,2.7-2.01,5.4-3.04,8.11c-1.04,2.71-2.05,5.41-3.04,8.11h-4.94c-0.99-2.73-1.98-5.43-2.96-8.11
			c-0.98-2.68-1.97-5.39-2.96-8.11H497.24z"/>
		<path class="st5" d="M513.88,141.77c0.08,1.11,0.59,1.93,1.51,2.47c0.92,0.54,1.99,0.81,3.21,0.81c0.85,0,1.64-0.06,2.36-0.17
			c0.72-0.11,1.41-0.27,2.06-0.47c0.11,0.57,0.23,1.11,0.34,1.62c0.11,0.51,0.23,1.05,0.34,1.62c-0.82,0.31-1.75,0.57-2.77,0.77
			s-2.04,0.3-3.07,0.3c-2.78,0-4.92-0.75-6.43-2.24c-1.5-1.49-2.26-3.51-2.26-6.07c0-1.02,0.16-2.05,0.49-3.09
			c0.33-1.04,0.82-1.97,1.49-2.81c0.67-0.84,1.52-1.51,2.55-2.02c1.04-0.51,2.26-0.77,3.68-0.77c1.3,0,2.41,0.23,3.32,0.7
			c0.91,0.47,1.65,1.08,2.24,1.85c0.58,0.77,1,1.63,1.26,2.6c0.25,0.97,0.38,1.95,0.38,2.94c0,0.43-0.01,0.81-0.02,1.15
			c-0.01,0.34-0.05,0.61-0.11,0.81H513.88z M520.06,138.45c0-0.34-0.04-0.72-0.13-1.13c-0.09-0.41-0.23-0.79-0.45-1.13
			s-0.51-0.63-0.89-0.87c-0.38-0.24-0.87-0.36-1.47-0.36c-0.57,0-1.04,0.11-1.43,0.34c-0.38,0.23-0.71,0.51-0.98,0.85
			c-0.27,0.34-0.48,0.72-0.62,1.13c-0.14,0.41-0.23,0.8-0.25,1.17H520.06z"/>
		<path class="st5" d="M526.57,137.26c0-0.71-0.01-1.43-0.02-2.15c-0.01-0.72-0.04-1.37-0.06-1.94c0-0.2-0.01-0.38-0.02-0.53
			c-0.01-0.16-0.02-0.33-0.02-0.53h4.26l0.21,2.38c0.2-0.28,0.46-0.58,0.79-0.89c0.33-0.31,0.71-0.61,1.15-0.89
			c0.44-0.28,0.94-0.52,1.49-0.7s1.17-0.28,1.85-0.28c0.82,0,1.59,0.13,2.3,0.4s1.32,0.7,1.83,1.28s0.92,1.31,1.21,2.17
			c0.3,0.87,0.45,1.89,0.45,3.09v9.67h-4.94v-9.03c0-1.08-0.21-1.95-0.62-2.62c-0.41-0.67-1.1-1-2.06-1c-0.71,0-1.29,0.21-1.72,0.62
			c-0.44,0.41-0.75,0.86-0.92,1.34c-0.14,0.37-0.21,0.81-0.21,1.32v9.37h-4.94V137.26z"/>
	</g>
</g>
</svg>
